<?xml version="1.0" standalone="no"?>
<!DOCTYPE svg PUBLIC "-//W3C//DTD SVG 20010904//EN"
 "http://www.w3.org/TR/2001/REC-SVG-20010904/DTD/svg10.dtd">
<svg version="1.0" xmlns="http://www.w3.org/2000/svg"
 width="900.000000pt" height="900.000000pt" viewBox="0 0 900.000000 900.000000"
 preserveAspectRatio="xMidYMid meet">

<g transform="translate(0.000000,900.000000) scale(0.100000,-0.100000)"
fill="#000000" stroke="none">
<path d="M0 4500 l0 -4500 4500 0 4500 0 0 4500 0 4500 -4500 0 -4500 0 0
-4500z m5140 1324 c763 -47 1488 -196 2025 -415 602 -246 935 -555 953 -885 6
-115 -7 -173 -65 -291 -111 -228 -421 -464 -838 -638 -171 -72 -211 -86 -402
-145 -246 -76 -348 -102 -619 -155 -540 -108 -1060 -155 -1694 -155 -703 0
-1271 60 -1895 200 -517 115 -1021 320 -1317 535 -153 112 -288 265 -342 388
-58 133 -65 275 -19 409 36 103 85 179 183 282 441 465 1559 809 2850 876 409
21 775 20 1180 -6z"/>
<path d="M4050 5730 c-549 -28 -1121 -111 -1540 -221 -426 -113 -802 -261
-1030 -407 -219 -140 -373 -305 -436 -467 -29 -75 -27 -240 4 -317 203 -510
1270 -927 2662 -1042 459 -38 1077 -41 1535 -6 915 70 1732 276 2229 562 206
118 343 235 431 367 66 100 87 167 88 276 2 161 -50 271 -198 420 -253 255
-670 451 -1325 624 -206 54 -643 130 -980 171 -320 38 -1071 59 -1440 40z
m-242 -271 c53 -5 221 -30 372 -54 673 -109 943 -119 1331 -53 142 24 159 21
159 -34 0 -113 -189 -227 -430 -259 -177 -24 -399 9 -805 121 -215 59 -261 68
-251 52 7 -12 -4 -24 -74 -77 -149 -113 -310 -279 -359 -373 l-12 -23 133 7
c73 4 135 8 137 11 3 2 6 23 7 47 5 87 62 166 134 187 49 15 85 5 121 -31 65
-65 21 -198 -83 -251 -21 -11 -38 -23 -38 -27 0 -4 16 -18 35 -32 40 -29 43
-43 14 -64 -20 -13 -25 -13 -51 0 -16 8 -46 30 -67 49 l-37 34 -126 -10 c-69
-5 -154 -13 -189 -17 l-62 -7 -55 -90 c-195 -319 -317 -490 -446 -624 -179
-184 -316 -257 -506 -268 -202 -12 -356 71 -436 233 -27 55 -29 67 -29 180 0
120 0 120 39 200 48 97 125 175 219 223 87 44 156 52 186 22 35 -35 23 -60
-54 -112 -82 -56 -118 -95 -151 -164 -39 -83 -29 -162 31 -232 84 -99 258 -96
429 7 74 44 247 215 352 345 99 125 178 234 172 241 -12 12 -121 -20 -191 -55
-42 -22 -84 -38 -92 -34 -23 8 -34 35 -25 59 17 44 206 121 345 140 28 3 58
11 67 16 10 5 58 61 106 126 122 161 273 301 401 371 29 16 49 31 45 34 -5 3
-94 20 -199 38 -169 30 -210 33 -365 33 -194 -1 -272 -15 -395 -74 -150 -71
-242 -230 -190 -329 19 -39 85 -64 139 -55 81 13 201 92 252 165 34 49 60 65
80 48 64 -53 -120 -325 -269 -399 -252 -123 -475 7 -454 264 20 232 262 430
600 491 89 16 403 19 535 4z m3030 -527 c9 -6 -27 -69 -133 -233 -80 -123
-177 -273 -216 -334 -38 -60 -100 -157 -137 -215 -165 -256 -190 -320 -136
-340 14 -6 36 -7 50 -4 49 13 147 86 265 201 119 116 121 117 146 103 49 -28
50 -44 11 -92 -72 -86 -205 -215 -279 -271 -96 -72 -184 -109 -260 -109 -91 0
-137 34 -163 121 l-11 40 -62 -48 c-83 -65 -145 -93 -220 -99 -161 -13 -275
116 -260 295 2 35 2 63 -2 61 -3 -2 -37 -18 -75 -37 -92 -45 -167 -52 -230
-21 -56 26 -81 61 -100 131 l-13 54 -55 -85 c-139 -215 -216 -337 -227 -357
-11 -22 -18 -23 -127 -23 -136 0 -132 -12 -41 133 177 281 242 389 274 455 30
62 34 77 25 98 -25 54 -103 15 -232 -115 -52 -53 -142 -159 -200 -236 -153
-205 -240 -283 -365 -331 -72 -27 -194 -26 -257 3 -59 27 -133 102 -149 151
-6 20 -14 41 -16 45 -3 4 -28 -14 -56 -41 -29 -26 -65 -57 -81 -67 l-29 -19
-28 32 c-16 18 -29 41 -29 51 0 10 20 35 45 56 66 53 117 126 164 235 71 163
180 287 309 350 91 44 214 75 242 60 25 -13 56 -79 43 -91 -4 -4 -46 -27 -93
-50 -113 -56 -217 -158 -250 -245 -63 -167 -15 -290 113 -289 104 1 200 78
263 210 53 111 64 227 33 348 -8 28 -7 43 2 53 20 24 88 56 112 52 31 -4 64
-70 79 -155 6 -40 14 -73 17 -72 4 1 33 31 66 68 132 146 236 211 338 211 51
0 61 -4 92 -32 29 -27 38 -45 47 -93 l11 -61 48 51 c95 100 213 139 296 96 23
-11 50 -32 61 -46 87 -110 -35 -297 -164 -255 -42 14 -74 61 -74 109 0 29 -2
32 -16 20 -30 -25 -64 -107 -64 -155 0 -39 5 -51 34 -80 27 -27 42 -34 72 -34
75 0 179 65 344 215 159 144 265 206 378 221 105 14 211 -36 249 -117 l21 -44
180 275 c100 151 186 281 192 288 12 14 206 17 228 4z"/>
<path d="M4148 4923 c-38 -44 -53 -123 -24 -123 43 0 109 97 85 126 -16 19
-43 18 -61 -3z"/>
<path d="M5941 4358 c-58 -28 -142 -113 -195 -197 -136 -211 -85 -382 89 -300
84 39 181 144 239 257 13 25 14 37 6 47 -8 10 -7 23 5 50 51 125 -26 202 -144
143z"/>
</g>
</svg>
