<?xml version="1.0" standalone="no"?>
<!DOCTYPE svg PUBLIC "-//W3C//DTD SVG 20010904//EN"
 "http://www.w3.org/TR/2001/REC-SVG-20010904/DTD/svg10.dtd">
<svg version="1.0" xmlns="http://www.w3.org/2000/svg"
 width="225.000000pt" height="225.000000pt" viewBox="0 0 225.000000 225.000000"
 preserveAspectRatio="xMidYMid meet">

<g transform="translate(0.000000,225.000000) scale(0.100000,-0.100000)"
fill="#000000" stroke="none">
<path d="M0 1125 l0 -1125 1125 0 1125 0 0 1125 0 1125 -1125 0 -1125 0 0
-1125z m1050 718 c211 -57 352 -239 367 -475 7 -110 -8 -191 -54 -288 -63
-132 -215 -257 -336 -277 l-39 -6 6 -51 c22 -164 117 -238 306 -238 193 0 283
73 311 253 12 75 6 362 -9 444 -7 40 -7 40 -67 50 -72 12 -85 19 -85 49 0 43
13 46 226 46 216 0 229 -3 222 -51 -4 -27 -18 -35 -83 -46 -63 -10 -62 -8 -64
-258 -1 -104 -6 -221 -11 -259 -34 -234 -193 -348 -485 -347 -289 1 -444 111
-462 330 l-6 70 -66 20 c-169 52 -290 167 -347 330 -21 60 -26 92 -25 170 1
171 56 306 165 409 88 82 185 125 326 146 42 6 152 -5 210 -21z m607 -1415
c-3 -8 -6 -5 -6 6 -1 11 2 17 5 13 3 -3 4 -12 1 -19z m70 0 c-3 -8 -6 -5 -6 6
-1 11 2 17 5 13 3 -3 4 -12 1 -19z"/>
<path d="M795 1751 c-98 -26 -181 -104 -215 -204 -70 -208 -6 -484 138 -594
71 -54 72 -52 72 106 0 176 -4 188 -67 196 -26 4 -55 9 -64 11 -23 6 -30 39
-12 63 14 20 23 21 244 21 l229 0 11 -24 c19 -41 -1 -62 -70 -70 -39 -5 -61
-12 -65 -22 -3 -9 -6 -87 -6 -174 l0 -158 31 11 c133 50 215 246 189 450 -24
192 -97 317 -213 367 -56 24 -153 34 -202 21z"/>
</g>
</svg>
