<?xml version="1.0" encoding="UTF-8"?>
<svg width="752pt" height="752pt" version="1.1" viewBox="0 0 752 752" xmlns="http://www.w3.org/2000/svg">
 <defs>
  <clipPath id="b">
   <path d="m142 139.21h382v472.79h-382z"/>
  </clipPath>
  <clipPath id="a">
   <path d="m456 381h154v231.79h-154z"/>
  </clipPath>
 </defs>
 <path d="m279.8 303.48c-10.359-10.359-17.02-19.238-20.719-26.641-2.2188 0.73828-5.1797 1.4805-8.1406 1.4805-2.9609 0-5.918-0.73828-8.1406-1.4805 3.6992 11.84 13.32 24.418 25.898 37.738-11.098 11.098-19.238 22.199-24.418 32.559 1.4805-0.73828 3.6992-0.73828 5.918-0.73828 3.6992 0 7.3984 0.73828 10.359 2.9609 3.6992-6.6602 10.359-14.801 19.238-23.68 4.4414 3.6992 8.8789 7.3984 13.32 11.098 0.73828 8.8789 1.4805 17.758 2.9609 26.641-9.6211 3.6992-17.758 5.1797-25.16 5.918 0 5.918-3.6992 11.84-8.1406 15.539 10.359 1.4805 25.898-2.9609 36.258-6.6602 2.9609 11.84 7.3984 22.938 12.578 30.34 1.4805-5.918 5.1797-10.359 9.6211-13.32-2.9609-5.918-5.918-13.32-8.1406-22.938 6.6602-2.9609 12.578-5.918 19.238-9.6211 6.6602 3.6992 13.32 6.6602 19.238 9.6211-2.2188 9.6211-5.1797 17.758-8.1406 23.68 4.4414 2.9609 8.1406 8.1406 8.8789 14.059 5.918-8.1406 10.359-19.238 13.32-31.82 10.359 3.6992 24.418 7.3984 35.52 6.6602-4.4414-3.6992-7.3984-8.8789-8.1406-15.539-6.6602-0.73828-15.539-2.9609-24.418-5.918 1.4805-8.8789 2.9609-17.758 2.9609-26.641 4.4414-3.6992 8.8789-7.3984 13.32-11.098 8.8789 8.8789 14.801 17.02 19.238 23.68 2.9609-1.4805 6.6602-2.2188 10.359-2.2188 2.2188 0 4.4414 0 6.6602 0.73828-4.4414-10.359-13.32-21.461-24.418-32.559 13.32-13.32 22.938-26.641 26.641-37.738-2.9609 1.4805-5.918 2.2188-9.6211 2.2188-2.2188 0-5.1797-0.73828-7.3984-1.4805-3.6992 7.3984-11.098 16.281-20.719 26.641-4.4414-3.6992-8.8789-7.3984-13.32-11.098-0.73828-8.8789-1.4805-18.5-2.9609-26.641 8.8789-2.9609 17.02-5.1797 23.68-5.918-0.73828-4.4414 0-10.359 3.6992-15.539-8.8789 0-19.238 2.9609-30.34 6.6602-3.6992-13.32-8.1406-24.418-13.32-31.82-1.4805 5.918-4.4414 10.359-9.6211 13.32 2.9609 5.918 5.918 14.059 8.8789 24.418-5.918 2.9609-12.578 5.918-19.238 9.6211-6.6602-3.6992-13.32-6.6602-19.238-9.6211 2.2188-9.6211 5.1797-17.758 8.1406-23.68-5.1797-2.9609-8.8789-7.3984-10.359-12.578-5.1797 7.3984-9.6211 18.5-12.578 31.078-11.84-4.4414-22.938-6.6602-31.82-6.6602 2.2188 3.6992 4.4414 8.1406 4.4414 12.578v2.9609c6.6602 0.73828 15.539 2.9609 24.418 5.918-1.4805 8.1406-2.2188 17.758-2.9609 26.641-4.4336 1.4805-8.8711 5.1797-13.312 8.8789zm12.582 11.84c-0.73828 0-0.73828-0.73828-1.4805-1.4805 0.73828 0 0.73828-0.73828 1.4805-0.73828zm82.133-2.2188c0.73828 0 0.73828 0.73828 1.4805 0.73828l-1.4805 1.4805zm-63.637 42.918c-0.73828-2.9609-0.73828-5.918-1.4805-8.8789 1.4805 1.4805 5.918 4.4414 8.1406 5.1797-1.4805 1.4766-4.4375 2.957-6.6602 3.6992zm45.141 0c-2.2188-0.73828-4.4414-2.2188-6.6602-2.9609 3.6992-2.2188 7.3984-4.4414 8.1406-5.1797-0.74219 2.9609-0.74219 5.918-1.4805 8.1406zm0-84.359c0.73828 2.9609 0.73828 5.918 1.4805 8.8789-0.73828-0.73828-4.4414-2.9609-8.1406-5.1797 2.2188-1.4766 4.4375-2.2188 6.6602-3.6992zm-45.141 0c2.2188 0.73828 4.4414 2.2188 6.6602 2.9609-2.2188 1.4805-6.6602 4.4414-8.1406 5.1797 0.74219-2.2188 1.4805-5.1797 1.4805-8.1406zm-2.957 28.859c7.3984-5.1797 14.059-10.359 25.16-17.02 11.84 7.3984 17.758 11.098 25.16 17.02 0.73828 9.6211 0.73828 17.02 0 27.379-8.8789 6.6602-16.281 11.098-25.16 17.02-8.1406-5.1797-16.281-10.359-25.16-17.02v-27.379z"/>
 <path d="m415.22 273.14c8.8789 0 16.281-7.3984 16.281-16.281 0-8.8789-7.3984-16.281-16.281-16.281-8.8789 0-16.281 7.3984-16.281 16.281 0.003906 8.8828 7.4023 16.281 16.281 16.281z"/>
 <path d="m250.95 240.59c-8.8789 0-16.281 7.3984-16.281 16.281 0 8.8789 7.3984 16.281 16.281 16.281 8.8789 0 16.281-7.3984 16.281-16.281 0-8.8789-7.4023-16.281-16.281-16.281z"/>
 <path d="m333.08 230.97c10.359 0 17.02-9.6211 16.281-17.02-0.73828-8.1406-7.3984-15.539-16.281-15.539-8.8789 0-16.277 6.6562-16.277 16.277 0 8.8789 7.3984 16.281 16.277 16.281z"/>
 <path d="m333.08 396.72c-8.8789 0-16.281 7.3984-16.281 16.281v0.73828c0 8.8789 7.3984 15.539 16.281 15.539 8.8789 0 16.281-7.3984 16.281-16.281 0-8.875-7.4023-16.277-16.281-16.277z"/>
 <path d="m432.98 367.12c0-8.8789-7.3984-16.281-16.281-16.281-8.8789 0-16.281 6.6602-16.281 16.281 0 8.8789 7.3984 16.281 16.281 16.281 8.8789 0 16.281-7.4023 16.281-16.281z"/>
 <path d="m250.21 383.4c2.2188 0 3.6992 0 5.918-0.73828 6.6602-2.2188 10.359-8.8789 10.359-15.539 0-9.6211-7.3984-16.281-16.281-16.281-2.9609 0-5.918 0.73828-8.1406 2.2188-5.1797 2.9609-8.1406 8.1406-8.1406 14.059 0.003906 8.8789 7.4062 16.281 16.285 16.281z"/>
 <g clip-path="url(#b)">
  <path d="m441.86 581.71h-247.15c-12.578 0-22.938-10.359-22.938-22.938v-367.77c0-12.578 10.359-22.938 22.938-22.938h277.49c12.578 0 22.938 10.359 22.938 22.938v179.81c9.6211-1.4805 19.238-2.9609 28.859-2.9609v-176.85c0-28.859-22.938-51.797-51.797-51.797h-277.49c-28.859 0-51.797 22.938-51.797 51.797v368.5c0 28.859 22.938 51.797 51.797 51.797h264.91c-10.359-7.3945-17.758-17.016-17.758-29.594z"/>
 </g>
 <path d="m412.26 475.9c0-5.1797-3.6992-8.8789-8.8789-8.8789h-179.07c-5.1797 0-8.8789 3.6992-8.8789 8.8789 0 5.1797 3.6992 8.8789 8.8789 8.8789h179.07c5.1758 0 8.8789-4.4414 8.8789-8.8789z"/>
 <path d="m224.31 550.63c-5.1797 0-8.8789 3.6992-8.8789 8.8789 0 5.1797 3.6992 8.8789 8.8789 8.8789l92.496 0.003906c5.1797 0 8.8789-3.6992 8.8789-8.8789s-3.6992-8.8789-8.8789-8.8789z"/>
 <path d="m369.34 517.34c0-5.1797-3.6992-8.8789-8.8789-8.8789h-136.15c-5.1797 0-8.8789 3.6992-8.8789 8.8789 0 5.1797 3.6992 8.8789 8.8789 8.8789h135.41c5.1797 0.74219 9.6172-3.6992 9.6172-8.8789z"/>
 <g clip-path="url(#a)">
  <path d="m609.09 413c0-20.719-38.477-31.078-76.219-31.078-37.738 0-76.219 11.098-76.219 31.078v56.238 56.238 55.496c0 20.719 38.477 31.078 76.219 31.078 37.738 0 76.219-11.098 76.219-31.078v-55.496-56.238-56.238zm-12.582 168.71c0 5.918-22.199 18.5-62.898 18.5s-62.898-11.84-62.898-18.5v-37.738c14.801 8.8789 39.219 13.32 62.898 13.32 24.418 0 48.84-4.4414 62.898-13.32zm0-56.98c0 5.918-22.199 18.5-62.898 18.5s-62.898-11.84-62.898-18.5l0.003906-37.738c14.801 8.8789 39.219 13.32 62.898 13.32 24.418 0 48.84-4.4414 62.898-13.32zm0-56.238c0 5.918-22.199 18.5-62.898 18.5s-62.898-11.84-62.898-18.5v-37c14.801 8.8789 39.219 13.32 62.898 13.32 24.418 0 48.84-4.4414 62.898-13.32zm-63.637-36.996c-40.699 0-62.898-11.84-62.898-18.5 0-5.918 22.199-18.5 62.898-18.5s62.898 11.84 62.898 18.5c0.73828 6.6602-22.199 18.5-62.898 18.5z"/>
 </g>
</svg>
